<?xml version="1.0" encoding="UTF-8" standalone="no"?>
<svg
   width="24"
   height="24"
   viewBox="0 0 24 24"
   version="1.1"
   id="svg4"
   sodipodi:docname="Facebook-Filled.svg"
   inkscape:version="1.1 (c68e22c387, 2021-05-23)"
   xmlns:inkscape="http://www.inkscape.org/namespaces/inkscape"
   xmlns:sodipodi="http://sodipodi.sourceforge.net/DTD/sodipodi-0.dtd"
   xmlns="http://www.w3.org/2000/svg"
   xmlns:svg="http://www.w3.org/2000/svg">
  <defs
     id="defs8" />
  <sodipodi:namedview
     id="namedview6"
     pagecolor="#505050"
     bordercolor="#eeeeee"
     borderopacity="1"
     inkscape:pageshadow="0"
     inkscape:pageopacity="0"
     inkscape:pagecheckerboard="0"
     showgrid="false"
     inkscape:zoom="33.541667"
     inkscape:cx="12.014907"
     inkscape:cy="12"
     inkscape:window-width="1920"
     inkscape:window-height="986"
     inkscape:window-x="-11"
     inkscape:window-y="-11"
     inkscape:window-maximized="1"
     inkscape:current-layer="svg4" />
  <path
     d="M20,3H4C3.447,3,3,3.448,3,4v16c0,0.552,0.447,1,1,1h8.615v-6.96h-2.338v-2.725h2.338v-2c0-2.325,1.42-3.592,3.5-3.592 c0.699-0.002,1.399,0.034,2.095,0.107v2.42h-1.435c-1.128,0-1.348,0.538-1.348,1.325v1.735h2.697l-0.35,2.725h-2.348V21H20 c0.553,0,1-0.448,1-1V4C21,3.448,20.553,3,20,3z"
     id="path2"
     style="fill:#ffffff" />
</svg>
