<?xml version="1.0" encoding="UTF-8" standalone="no"?>
<svg
   height="480pt"
   viewBox="-24 0 480 480"
   width="480pt"
   version="1.1"
   id="svg854"
   sodipodi:docname="rar.svg"
   inkscape:version="1.1 (c68e22c387, 2021-05-23)"
   xmlns:inkscape="http://www.inkscape.org/namespaces/inkscape"
   xmlns:sodipodi="http://sodipodi.sourceforge.net/DTD/sodipodi-0.dtd"
   xmlns="http://www.w3.org/2000/svg"
   xmlns:svg="http://www.w3.org/2000/svg">
  <defs
     id="defs858" />
  <sodipodi:namedview
     id="namedview856"
     pagecolor="#ffffff"
     bordercolor="#999999"
     borderopacity="1"
     inkscape:pageshadow="0"
     inkscape:pageopacity="0"
     inkscape:pagecheckerboard="0"
     inkscape:document-units="pt"
     showgrid="false"
     inkscape:zoom="1.16875"
     inkscape:cx="320"
     inkscape:cy="320"
     inkscape:window-width="1920"
     inkscape:window-height="986"
     inkscape:window-x="-11"
     inkscape:window-y="-11"
     inkscape:window-maximized="1"
     inkscape:current-layer="svg854" />
  <path
     d="m88.023438 320v-144c.027343-8.824219 7.175781-15.972656 16-16h272v-136c-.027344-8.824219-7.171876-15.972656-16-16h-248v80c0 8.835938-7.164063 16-16 16h-88v352c.027343 8.824219 7.175781 15.972656 16 16h336c8.828124-.027344 15.972656-7.175781 16-16v-120h-272c-8.824219-.027344-15.972657-7.175781-16-16zm0 0"
     fill="#9bc9ff"
     id="path842"
     style="fill:#ff8282;fill-opacity:1" />
  <g
     fill="#1e81ce"
     id="g852">
    <path
       d="m 408.02344,152 h -24 V 24 c 0,-13.253906 -10.7461,-24 -24,-24 h -248 c -0.16797,0 -0.32813,0.078125 -0.4961,0.0976562 -0.63671,0.0390628 -1.26562,0.1562498 -1.87109,0.3515628 -0.27344,0.066406 -0.53906,0.148437 -0.80078,0.246093 -0.83594,0.339844 -1.60547,0.824219 -2.28125,1.425782 l -104.000001,96 c -0.710938,0.6875 -1.292969,1.5 -1.710938,2.398436 -0.109375,0.2461 -0.210937,0.4961 -0.296875,0.75391 -0.261718,0.71875 -0.417968,1.47265 -0.460937,2.23828 C 0.105469,103.67969 0,103.83203 0,104 v 352 c 0,13.25391 10.746094,24 24,24 h 336.02344 c 13.2539,0 24,-10.74609 24,-24 V 344 h 24 c 13.2539,0 24,-10.74609 24,-24 V 176 c 0,-13.25391 -10.7461,-24 -24,-24 z m -304,-125.726562 V 88 c 0,4.417969 -3.58203,8 -8.000002,8 H 28.488281 Z M 368.02344,456 c 0,4.41797 -3.58203,8 -8,8 H 24.023438 c -4.417969,0 -8,-3.58203 -8,-8 V 112 h 80 c 13.253902,0 24.000002,-10.74609 24.000002,-24 V 16 h 240 c 4.41797,0 8,3.582031 8,8 v 128 h -264 c -13.253909,0 -24.000002,10.74609 -24.000002,24 v 144 c 0,13.25391 10.746093,24 24.000002,24 h 264 z m 48,-136 c 0,4.41797 -3.58203,8 -8,8 h -304 c -4.417971,0 -8.000002,-3.58203 -8.000002,-8 V 176 c 0,-4.41797 3.582031,-8 8.000002,-8 h 304 c 4.41797,0 8,3.58203 8,8 z m 0,0"
       id="path844"
       style="fill:#ff0000" />
    <path
       d="m 176.02344,192 h -48 c -4.41797,0 -8,3.58203 -8,8 v 96 c 0,4.41797 3.58203,8 8,8 4.41797,0 8,-3.58203 8,-8 v -40 h 4.29687 l 45.85547,45.84766 c 3.14063,3.03125 8.12891,2.98828 11.21484,-0.0977 3.08594,-3.08594 3.12891,-8.07422 0.0977,-11.21484 L 162.94531,256 h 13.07813 c 13.2539,0 24,-10.74609 24,-24 v -16 c 0,-13.25391 -10.7461,-24 -24,-24 z m 8,40 c 0,4.41797 -3.58203,8 -8,8 h -40 v -32 h 40 c 4.41797,0 8,3.58203 8,8 z m 0,0"
       id="path846"
       style="fill:#ff0000" />
    <path
       d="m 368.02344,192 h -48 c -4.41797,0 -8,3.58203 -8,8 v 96 c 0,4.41797 3.58203,8 8,8 4.41797,0 8,-3.58203 8,-8 v -40 h 4.29687 l 45.85547,45.84766 c 3.14063,3.03125 8.12891,2.98828 11.21484,-0.0977 3.08594,-3.08594 3.12891,-8.07422 0.0977,-11.21484 L 354.94531,256 h 13.07813 c 13.2539,0 24,-10.74609 24,-24 v -16 c 0,-13.25391 -10.7461,-24 -24,-24 z m 8,40 c 0,4.41797 -3.58203,8 -8,8 h -40 v -32 h 40 c 4.41797,0 8,3.58203 8,8 z m 0,0"
       id="path848"
       style="fill:#ff0000" />
    <path
       d="M 263.40625,196.92187 C 262.16406,193.94141 259.25391,192 256.02344,192 c -3.22657,0 -6.14063,1.94141 -7.38282,4.92187 l -40,96 c -1.70312,4.07813 0.22657,8.76172 4.30469,10.46094 4.07813,1.70313 8.76172,-0.22656 10.46094,-4.30469 L 231.35937,280 h 49.32813 l 7.95312,19.07812 c 1.69922,4.07813 6.38672,6.00782 10.46485,4.30469 4.07812,-1.69922 6.0039,-6.38281 4.30078,-10.46094 z M 238.02344,264 l 18,-43.19922 18,43.19922 z m 0,0"
       id="path850"
       style="fill:#ff0000" />
  </g>
</svg>
